<svg width="800" height="800" viewBox="0 0 800 800" fill="none" xmlns="http://www.w3.org/2000/svg">
  <path d="M800 0C800 0 600 200 600 400C600 600 400 800 400 800H800V0Z" fill="#ff0000" fill-opacity="0.018"/>
  <path d="M800 200C800 200 650 350 650 500C650 650 500 800 500 800H800V200Z" fill="#ff0000" fill-opacity="0.025"/>
  <path d="M800 400C800 400 700 500 700 600C700 700 600 800 600 800H800V400Z" fill="#ff0000" fill-opacity="0.032"/>
  <mask id="mask0_1_2" style="mask-type:alpha" maskUnits="userSpaceOnUse" x="0" y="0" width="800" height="800">
    <rect width="800" height="800" fill="#D9D9D9"/>
  </mask>
  <g mask="url(#mask0_1_2)">
    <circle cx="800" cy="800" r="300" fill="#ff0000" fill-opacity="0.014"/>
    <circle cx="800" cy="800" r="200" fill="#ff0000" fill-opacity="0.02"/>
  </g>
</svg>